<mxfile host="app.diagrams.net" modified="2023-09-30T19:09:32.582Z" agent="Mozilla/5.0 (Windows NT 10.0; Win64; x64) AppleWebKit/537.36 (KHTML, like Gecko) Chrome/117.0.0.0 Safari/537.36" etag="2An5ydsOXbRV4IhU5y_Z" version="21.6.8" type="device">
  <diagram id="R2lEEEUBdFMjLlhIrx00" name="Page-1">
    <mxGraphModel dx="2284" dy="774" grid="1" gridSize="10" guides="1" tooltips="1" connect="1" arrows="1" fold="1" page="1" pageScale="1" pageWidth="850" pageHeight="1100" math="0" shadow="0" extFonts="Permanent Marker^https://fonts.googleapis.com/css?family=Permanent+Marker">
      <root>
        <mxCell id="0" />
        <mxCell id="1" parent="0" />
        <mxCell id="x2SnPRAIrf3rd96ZSahB-1" value="CRIMES" style="rounded=0;whiteSpace=wrap;html=1;" vertex="1" parent="1">
          <mxGeometry x="70" y="170" width="120" height="60" as="geometry" />
        </mxCell>
        <mxCell id="x2SnPRAIrf3rd96ZSahB-3" value="PAIS" style="rounded=0;whiteSpace=wrap;html=1;" vertex="1" parent="1">
          <mxGeometry x="670" y="30" width="120" height="60" as="geometry" />
        </mxCell>
        <mxCell id="x2SnPRAIrf3rd96ZSahB-4" value="ESTADO" style="rounded=0;whiteSpace=wrap;html=1;" vertex="1" parent="1">
          <mxGeometry x="670" y="330" width="120" height="60" as="geometry" />
        </mxCell>
        <mxCell id="x2SnPRAIrf3rd96ZSahB-6" value="PERTENCE" style="rhombus;whiteSpace=wrap;html=1;" vertex="1" parent="1">
          <mxGeometry x="690" y="160" width="80" height="60" as="geometry" />
        </mxCell>
        <mxCell id="x2SnPRAIrf3rd96ZSahB-9" value="" style="endArrow=none;html=1;rounded=0;entryX=0.5;entryY=0;entryDx=0;entryDy=0;exitX=0.5;exitY=1;exitDx=0;exitDy=0;" edge="1" parent="1" source="x2SnPRAIrf3rd96ZSahB-3" target="x2SnPRAIrf3rd96ZSahB-6">
          <mxGeometry width="50" height="50" relative="1" as="geometry">
            <mxPoint x="400" y="320" as="sourcePoint" />
            <mxPoint x="450" y="270" as="targetPoint" />
          </mxGeometry>
        </mxCell>
        <mxCell id="x2SnPRAIrf3rd96ZSahB-74" value="1" style="edgeLabel;html=1;align=center;verticalAlign=middle;resizable=0;points=[];" vertex="1" connectable="0" parent="x2SnPRAIrf3rd96ZSahB-9">
          <mxGeometry relative="1" as="geometry">
            <mxPoint as="offset" />
          </mxGeometry>
        </mxCell>
        <mxCell id="x2SnPRAIrf3rd96ZSahB-12" value="OCORREU" style="rhombus;whiteSpace=wrap;html=1;" vertex="1" parent="1">
          <mxGeometry x="390" y="160" width="80" height="80" as="geometry" />
        </mxCell>
        <mxCell id="x2SnPRAIrf3rd96ZSahB-13" value="" style="endArrow=none;html=1;rounded=0;exitX=1;exitY=0.5;exitDx=0;exitDy=0;entryX=0;entryY=0.5;entryDx=0;entryDy=0;" edge="1" parent="1" source="x2SnPRAIrf3rd96ZSahB-12" target="x2SnPRAIrf3rd96ZSahB-4">
          <mxGeometry width="50" height="50" relative="1" as="geometry">
            <mxPoint x="400" y="320" as="sourcePoint" />
            <mxPoint x="450" y="270" as="targetPoint" />
          </mxGeometry>
        </mxCell>
        <mxCell id="x2SnPRAIrf3rd96ZSahB-17" value="OUTROS CRIMES" style="rounded=0;whiteSpace=wrap;html=1;" vertex="1" parent="1">
          <mxGeometry x="-30" y="390" width="120" height="60" as="geometry" />
        </mxCell>
        <mxCell id="x2SnPRAIrf3rd96ZSahB-18" value="CRIMES BRUTAIS" style="rounded=0;whiteSpace=wrap;html=1;" vertex="1" parent="1">
          <mxGeometry x="150" y="390" width="120" height="60" as="geometry" />
        </mxCell>
        <mxCell id="x2SnPRAIrf3rd96ZSahB-21" value="" style="endArrow=none;html=1;rounded=0;entryX=0.583;entryY=0;entryDx=0;entryDy=0;entryPerimeter=0;exitX=1;exitY=1;exitDx=0;exitDy=0;" edge="1" parent="1" source="x2SnPRAIrf3rd96ZSahB-75" target="x2SnPRAIrf3rd96ZSahB-18">
          <mxGeometry width="50" height="50" relative="1" as="geometry">
            <mxPoint x="206.31727983645305" y="322.6776695296637" as="sourcePoint" />
            <mxPoint x="260" y="340" as="targetPoint" />
            <Array as="points">
              <mxPoint x="180" y="350" />
            </Array>
          </mxGeometry>
        </mxCell>
        <mxCell id="x2SnPRAIrf3rd96ZSahB-62" value=")" style="edgeLabel;html=1;align=center;verticalAlign=middle;resizable=0;points=[];" vertex="1" connectable="0" parent="x2SnPRAIrf3rd96ZSahB-21">
          <mxGeometry x="-0.0452" relative="1" as="geometry">
            <mxPoint as="offset" />
          </mxGeometry>
        </mxCell>
        <mxCell id="x2SnPRAIrf3rd96ZSahB-22" value="" style="endArrow=none;html=1;rounded=0;exitX=1;exitY=0.5;exitDx=0;exitDy=0;entryX=0;entryY=0.5;entryDx=0;entryDy=0;" edge="1" parent="1" source="x2SnPRAIrf3rd96ZSahB-1" target="x2SnPRAIrf3rd96ZSahB-12">
          <mxGeometry width="50" height="50" relative="1" as="geometry">
            <mxPoint x="400" y="320" as="sourcePoint" />
            <mxPoint x="450" y="270" as="targetPoint" />
          </mxGeometry>
        </mxCell>
        <mxCell id="x2SnPRAIrf3rd96ZSahB-24" value="NOME&lt;br&gt;" style="text;html=1;strokeColor=none;fillColor=none;align=center;verticalAlign=middle;whiteSpace=wrap;rounded=0;" vertex="1" parent="1">
          <mxGeometry x="840" y="30" width="60" height="30" as="geometry" />
        </mxCell>
        <mxCell id="x2SnPRAIrf3rd96ZSahB-25" value="RENDA PER CAPITA" style="text;html=1;strokeColor=none;fillColor=none;align=center;verticalAlign=middle;whiteSpace=wrap;rounded=0;" vertex="1" parent="1">
          <mxGeometry x="840" y="60" width="140" height="30" as="geometry" />
        </mxCell>
        <mxCell id="x2SnPRAIrf3rd96ZSahB-27" value="&amp;nbsp; IDH" style="text;html=1;strokeColor=none;fillColor=none;align=center;verticalAlign=middle;whiteSpace=wrap;rounded=0;" vertex="1" parent="1">
          <mxGeometry x="830" y="90" width="60" height="30" as="geometry" />
        </mxCell>
        <mxCell id="x2SnPRAIrf3rd96ZSahB-28" value="" style="endArrow=none;html=1;rounded=0;entryX=0;entryY=0.5;entryDx=0;entryDy=0;exitX=1;exitY=0.25;exitDx=0;exitDy=0;" edge="1" parent="1" source="x2SnPRAIrf3rd96ZSahB-3" target="x2SnPRAIrf3rd96ZSahB-24">
          <mxGeometry width="50" height="50" relative="1" as="geometry">
            <mxPoint x="790" y="50" as="sourcePoint" />
            <mxPoint x="840" as="targetPoint" />
          </mxGeometry>
        </mxCell>
        <mxCell id="x2SnPRAIrf3rd96ZSahB-29" value="" style="endArrow=none;html=1;rounded=0;" edge="1" parent="1">
          <mxGeometry width="50" height="50" relative="1" as="geometry">
            <mxPoint x="790" y="70" as="sourcePoint" />
            <mxPoint x="840" y="70" as="targetPoint" />
          </mxGeometry>
        </mxCell>
        <mxCell id="x2SnPRAIrf3rd96ZSahB-30" value="" style="endArrow=none;html=1;rounded=0;exitX=1;exitY=1;exitDx=0;exitDy=0;" edge="1" parent="1" source="x2SnPRAIrf3rd96ZSahB-3" target="x2SnPRAIrf3rd96ZSahB-27">
          <mxGeometry width="50" height="50" relative="1" as="geometry">
            <mxPoint x="790" y="100" as="sourcePoint" />
            <mxPoint x="840" y="50" as="targetPoint" />
          </mxGeometry>
        </mxCell>
        <mxCell id="x2SnPRAIrf3rd96ZSahB-33" value="" style="endArrow=none;html=1;rounded=0;entryX=-0.008;entryY=0.133;entryDx=0;entryDy=0;entryPerimeter=0;" edge="1" parent="1" target="x2SnPRAIrf3rd96ZSahB-3">
          <mxGeometry width="50" height="50" relative="1" as="geometry">
            <mxPoint x="590" y="38" as="sourcePoint" />
            <mxPoint x="590" y="60" as="targetPoint" />
          </mxGeometry>
        </mxCell>
        <mxCell id="x2SnPRAIrf3rd96ZSahB-34" value="AREA" style="text;html=1;strokeColor=none;fillColor=none;align=center;verticalAlign=middle;whiteSpace=wrap;rounded=0;" vertex="1" parent="1">
          <mxGeometry x="530" y="20" width="60" height="30" as="geometry" />
        </mxCell>
        <mxCell id="x2SnPRAIrf3rd96ZSahB-35" value="POPULAÇAO" style="text;html=1;strokeColor=none;fillColor=none;align=center;verticalAlign=middle;whiteSpace=wrap;rounded=0;" vertex="1" parent="1">
          <mxGeometry x="530" y="60" width="60" height="30" as="geometry" />
        </mxCell>
        <mxCell id="x2SnPRAIrf3rd96ZSahB-36" value="" style="endArrow=none;html=1;rounded=0;" edge="1" parent="1">
          <mxGeometry width="50" height="50" relative="1" as="geometry">
            <mxPoint x="600" y="70" as="sourcePoint" />
            <mxPoint x="670" y="70" as="targetPoint" />
          </mxGeometry>
        </mxCell>
        <mxCell id="x2SnPRAIrf3rd96ZSahB-38" value="SIGLA" style="text;html=1;strokeColor=none;fillColor=none;align=center;verticalAlign=middle;whiteSpace=wrap;rounded=0;" vertex="1" parent="1">
          <mxGeometry x="840" y="330" width="60" height="30" as="geometry" />
        </mxCell>
        <mxCell id="x2SnPRAIrf3rd96ZSahB-39" value="IDH" style="text;html=1;strokeColor=none;fillColor=none;align=center;verticalAlign=middle;whiteSpace=wrap;rounded=0;" vertex="1" parent="1">
          <mxGeometry x="860" y="360" width="60" height="30" as="geometry" />
        </mxCell>
        <mxCell id="x2SnPRAIrf3rd96ZSahB-40" value="RENDA PER CAPITA" style="text;html=1;strokeColor=none;fillColor=none;align=center;verticalAlign=middle;whiteSpace=wrap;rounded=0;" vertex="1" parent="1">
          <mxGeometry x="840" y="420" width="60" height="30" as="geometry" />
        </mxCell>
        <mxCell id="x2SnPRAIrf3rd96ZSahB-41" value="AREA" style="text;html=1;strokeColor=none;fillColor=none;align=center;verticalAlign=middle;whiteSpace=wrap;rounded=0;" vertex="1" parent="1">
          <mxGeometry x="740" y="440" width="60" height="30" as="geometry" />
        </mxCell>
        <mxCell id="x2SnPRAIrf3rd96ZSahB-42" value="POPULAÇAO" style="text;html=1;strokeColor=none;fillColor=none;align=center;verticalAlign=middle;whiteSpace=wrap;rounded=0;" vertex="1" parent="1">
          <mxGeometry x="670" y="440" width="60" height="30" as="geometry" />
        </mxCell>
        <mxCell id="x2SnPRAIrf3rd96ZSahB-44" value="" style="endArrow=none;html=1;rounded=0;entryX=0.375;entryY=1.017;entryDx=0;entryDy=0;entryPerimeter=0;" edge="1" parent="1" target="x2SnPRAIrf3rd96ZSahB-4">
          <mxGeometry width="50" height="50" relative="1" as="geometry">
            <mxPoint x="680" y="445" as="sourcePoint" />
            <mxPoint x="730" y="395" as="targetPoint" />
          </mxGeometry>
        </mxCell>
        <mxCell id="x2SnPRAIrf3rd96ZSahB-45" value="" style="endArrow=none;html=1;rounded=0;entryX=0.75;entryY=1;entryDx=0;entryDy=0;" edge="1" parent="1" target="x2SnPRAIrf3rd96ZSahB-4">
          <mxGeometry width="50" height="50" relative="1" as="geometry">
            <mxPoint x="770" y="445" as="sourcePoint" />
            <mxPoint x="820" y="395" as="targetPoint" />
          </mxGeometry>
        </mxCell>
        <mxCell id="x2SnPRAIrf3rd96ZSahB-46" value="" style="endArrow=none;html=1;rounded=0;" edge="1" parent="1" target="x2SnPRAIrf3rd96ZSahB-38">
          <mxGeometry width="50" height="50" relative="1" as="geometry">
            <mxPoint x="790" y="350" as="sourcePoint" />
            <mxPoint x="840" y="300" as="targetPoint" />
          </mxGeometry>
        </mxCell>
        <mxCell id="x2SnPRAIrf3rd96ZSahB-47" value="" style="endArrow=none;html=1;rounded=0;entryX=0;entryY=0.5;entryDx=0;entryDy=0;" edge="1" parent="1" target="x2SnPRAIrf3rd96ZSahB-40">
          <mxGeometry width="50" height="50" relative="1" as="geometry">
            <mxPoint x="790" y="390" as="sourcePoint" />
            <mxPoint x="840" y="340" as="targetPoint" />
          </mxGeometry>
        </mxCell>
        <mxCell id="x2SnPRAIrf3rd96ZSahB-48" value="" style="endArrow=none;html=1;rounded=0;entryX=0;entryY=0.5;entryDx=0;entryDy=0;" edge="1" parent="1" target="x2SnPRAIrf3rd96ZSahB-39">
          <mxGeometry width="50" height="50" relative="1" as="geometry">
            <mxPoint x="790" y="380" as="sourcePoint" />
            <mxPoint x="840" y="330" as="targetPoint" />
          </mxGeometry>
        </mxCell>
        <mxCell id="x2SnPRAIrf3rd96ZSahB-49" value="" style="endArrow=none;html=1;rounded=0;" edge="1" parent="1">
          <mxGeometry width="50" height="50" relative="1" as="geometry">
            <mxPoint x="150" y="170" as="sourcePoint" />
            <mxPoint x="200" y="120" as="targetPoint" />
          </mxGeometry>
        </mxCell>
        <mxCell id="x2SnPRAIrf3rd96ZSahB-50" value="TIPO" style="text;html=1;strokeColor=none;fillColor=none;align=center;verticalAlign=middle;whiteSpace=wrap;rounded=0;" vertex="1" parent="1">
          <mxGeometry x="190" y="90" width="60" height="30" as="geometry" />
        </mxCell>
        <mxCell id="x2SnPRAIrf3rd96ZSahB-52" value="" style="shape=link;html=1;rounded=0;exitX=0.45;exitY=0.983;exitDx=0;exitDy=0;exitPerimeter=0;" edge="1" parent="1" source="x2SnPRAIrf3rd96ZSahB-1">
          <mxGeometry relative="1" as="geometry">
            <mxPoint x="340" y="500" as="sourcePoint" />
            <mxPoint x="124" y="270" as="targetPoint" />
          </mxGeometry>
        </mxCell>
        <mxCell id="x2SnPRAIrf3rd96ZSahB-53" value="N" style="resizable=0;html=1;whiteSpace=wrap;align=right;verticalAlign=bottom;" connectable="0" vertex="1" parent="x2SnPRAIrf3rd96ZSahB-52">
          <mxGeometry x="1" relative="1" as="geometry" />
        </mxCell>
        <mxCell id="x2SnPRAIrf3rd96ZSahB-56" value="Nº VITIMAS" style="text;html=1;strokeColor=none;fillColor=none;align=center;verticalAlign=middle;whiteSpace=wrap;rounded=0;" vertex="1" parent="1">
          <mxGeometry x="290" y="390" width="80" height="30" as="geometry" />
        </mxCell>
        <mxCell id="x2SnPRAIrf3rd96ZSahB-58" value="" style="endArrow=none;html=1;rounded=0;exitX=1;exitY=0.25;exitDx=0;exitDy=0;entryX=0;entryY=0.5;entryDx=0;entryDy=0;" edge="1" parent="1" source="x2SnPRAIrf3rd96ZSahB-18" target="x2SnPRAIrf3rd96ZSahB-56">
          <mxGeometry width="50" height="50" relative="1" as="geometry">
            <mxPoint x="400" y="420" as="sourcePoint" />
            <mxPoint x="450" y="370" as="targetPoint" />
          </mxGeometry>
        </mxCell>
        <mxCell id="x2SnPRAIrf3rd96ZSahB-59" value="" style="endArrow=none;html=1;rounded=0;" edge="1" parent="1">
          <mxGeometry width="50" height="50" relative="1" as="geometry">
            <mxPoint x="130" y="170" as="sourcePoint" />
            <mxPoint x="130" y="120" as="targetPoint" />
          </mxGeometry>
        </mxCell>
        <mxCell id="x2SnPRAIrf3rd96ZSahB-60" value="DESCRIÇAO" style="text;html=1;strokeColor=none;fillColor=none;align=center;verticalAlign=middle;whiteSpace=wrap;rounded=0;" vertex="1" parent="1">
          <mxGeometry x="100.00000000000003" y="90" width="60" height="30" as="geometry" />
        </mxCell>
        <mxCell id="x2SnPRAIrf3rd96ZSahB-67" value="" style="endArrow=none;html=1;rounded=0;entryX=0;entryY=1;entryDx=0;entryDy=0;" edge="1" parent="1" target="x2SnPRAIrf3rd96ZSahB-75">
          <mxGeometry width="50" height="50" relative="1" as="geometry">
            <mxPoint x="30" y="390" as="sourcePoint" />
            <mxPoint x="43.682720163546946" y="322.6776695296637" as="targetPoint" />
          </mxGeometry>
        </mxCell>
        <mxCell id="x2SnPRAIrf3rd96ZSahB-68" value="(" style="edgeLabel;html=1;align=center;verticalAlign=middle;resizable=0;points=[];" vertex="1" connectable="0" parent="x2SnPRAIrf3rd96ZSahB-67">
          <mxGeometry x="0.0984" y="1" relative="1" as="geometry">
            <mxPoint as="offset" />
          </mxGeometry>
        </mxCell>
        <mxCell id="x2SnPRAIrf3rd96ZSahB-71" value="" style="shape=link;html=1;rounded=0;exitX=0.5;exitY=0;exitDx=0;exitDy=0;" edge="1" parent="1" source="x2SnPRAIrf3rd96ZSahB-4">
          <mxGeometry relative="1" as="geometry">
            <mxPoint x="570" y="220" as="sourcePoint" />
            <mxPoint x="730" y="220" as="targetPoint" />
          </mxGeometry>
        </mxCell>
        <mxCell id="x2SnPRAIrf3rd96ZSahB-72" value="N" style="resizable=0;html=1;whiteSpace=wrap;align=right;verticalAlign=bottom;" connectable="0" vertex="1" parent="x2SnPRAIrf3rd96ZSahB-71">
          <mxGeometry x="1" relative="1" as="geometry" />
        </mxCell>
        <mxCell id="x2SnPRAIrf3rd96ZSahB-73" value="N" style="edgeLabel;html=1;align=center;verticalAlign=middle;resizable=0;points=[];" vertex="1" connectable="0" parent="x2SnPRAIrf3rd96ZSahB-71">
          <mxGeometry x="0.0727" relative="1" as="geometry">
            <mxPoint as="offset" />
          </mxGeometry>
        </mxCell>
        <mxCell id="x2SnPRAIrf3rd96ZSahB-75" value="D" style="ellipse;whiteSpace=wrap;html=1;aspect=fixed;" vertex="1" parent="1">
          <mxGeometry x="100" y="270" width="50" height="50" as="geometry" />
        </mxCell>
        <mxCell id="x2SnPRAIrf3rd96ZSahB-76" value="N" style="text;html=1;align=center;verticalAlign=middle;resizable=0;points=[];autosize=1;strokeColor=none;fillColor=none;" vertex="1" parent="1">
          <mxGeometry x="265" y="178" width="30" height="30" as="geometry" />
        </mxCell>
        <mxCell id="x2SnPRAIrf3rd96ZSahB-77" value="N" style="text;html=1;align=center;verticalAlign=middle;resizable=0;points=[];autosize=1;strokeColor=none;fillColor=none;" vertex="1" parent="1">
          <mxGeometry x="535" y="228" width="30" height="30" as="geometry" />
        </mxCell>
      </root>
    </mxGraphModel>
  </diagram>
</mxfile>
